<?xml version="1.0" encoding="UTF-8"?>
<svg version="1.1" xmlns="http://www.w3.org/2000/svg" width="515" height="484">
<path d="M0 0 C1.12776855 0.25861816 1.12776855 0.25861816 2.27832031 0.52246094 C15.32994768 3.61403662 26.65854232 8.33297605 38.24853516 15.0637207 C40.72411132 16.38708767 42.3899536 17.12200928 45.1875 16.5625 C45.785625 16.376875 46.38375 16.19125 47 16 C47 15.34 47 14.68 47 14 C76.93388511 -0.76542925 109.38945415 -8.12154903 142.01000977 2.90161133 C145.97241462 4.30575191 149.49340073 5.66226715 153 8 C153.2224948 10.80640107 153.28088481 13.33116892 153.1875 16.125 C153.125625 18.72375 153.06375 21.3225 153 24 C160.92 24 168.84 24 177 24 C177 80.1 177 136.2 177 194 C173.76141514 194.80964622 171.61280663 195.12122649 168.36920547 195.10743046 C167.43814145 195.10593811 166.50707743 195.10444576 165.54779935 195.10290819 C164.52834942 195.0961044 163.50889948 195.08930061 162.45855713 195.08229065 C160.83021852 195.07744696 160.83021852 195.07744696 159.16898417 195.07250541 C155.5191963 195.0604091 151.86948287 195.04104054 148.21972656 195.02172852 C145.60833397 195.01158798 142.99693962 195.00189406 140.38554382 194.99261475 C134.75706511 194.97190763 129.12861238 194.94748162 123.50016022 194.92053413 C115.36235053 194.8815779 107.22452547 194.84822343 99.08668575 194.81623887 C85.88378135 194.76419459 72.68090044 194.70761605 59.47802734 194.64819336 C46.65219028 194.5904773 33.82634687 194.53490381 21.00048828 194.48217773 C20.20192197 194.47889223 19.40335566 194.47560673 18.58059037 194.47222167 C12.33533517 194.44654388 6.09007947 194.42099041 -0.1551764 194.39547622 C-30.7701488 194.27037087 -61.38506435 194.13442116 -92 194 C-92 137.9 -92 81.8 -92 24 C-84.08 24 -76.16 24 -68 24 C-68 18.72 -68 13.44 -68 8 C-62.72137315 4.96759734 -57.37013318 3.04571454 -51.5625 1.3125 C-50.85939697 1.09827393 -50.15629395 0.88404785 -49.43188477 0.66333008 C-34.05914146 -3.78793512 -15.49384036 -3.58621474 0 0 Z M-55 17 C-55 65.18 -55 113.36 -55 163 C-50.05 162.01 -45.1 161.02 -40 160 C-35.5534668 159.59594727 -35.5534668 159.59594727 -31.94921875 159.56640625 C-31.28641907 159.55944229 -30.62361938 159.55247833 -29.94073486 159.54530334 C-27.85577964 159.53170368 -25.77239785 159.54370325 -23.6875 159.5625 C-22.96732697 159.56554138 -22.24715393 159.56858276 -21.50515747 159.57171631 C-10.27973987 159.64165661 0.30174855 160.39768986 11 164 C11.72509766 164.24089355 12.45019531 164.48178711 13.19726562 164.72998047 C24.84277448 168.68491627 24.84277448 168.68491627 29.76171875 171.68359375 C31.99820383 173.25347719 31.99820383 173.25347719 35 173 C34.99363525 172.37544922 34.98727051 171.75089844 34.98071289 171.10742188 C34.97194898 168.23710761 35.01685839 165.36994449 35.0625 162.5 C35.05154297 161.51773438 35.04058594 160.53546875 35.02929688 159.5234375 C35.18123378 153.01185607 36.37086931 149.44585889 40.91577148 144.73632812 C43.45445247 142.62140494 46.25073141 140.83284573 49 139 C49 150.55 49 162.1 49 174 C53.75345245 171.98619801 53.75345245 171.98619801 58.421875 169.7890625 C67.14930493 165.42534753 76.53400902 163.1842931 86 161 C86.75659912 160.81751709 87.51319824 160.63503418 88.29272461 160.44702148 C91.72545369 159.88021411 95.1053687 159.83765403 98.57421875 159.83203125 C99.2980928 159.82870285 100.02196686 159.82537445 100.76777649 159.82194519 C102.29659392 159.81689789 103.82542229 159.81453618 105.35424805 159.81469727 C107.66278878 159.81252327 109.97084132 159.7943791 112.27929688 159.77539062 C119.33973723 159.74934086 126.13767869 159.82157917 133.03051758 161.5690918 C135.31524903 162.14249107 135.31524903 162.14249107 139 162 C139.07000586 143.1289146 139.12294677 124.25785546 139.15543652 105.38666725 C139.17092141 96.62492158 139.19204178 87.86325647 139.22631836 79.1015625 C139.25617122 71.4670263 139.27556319 63.83254843 139.28226548 56.19795549 C139.28618476 52.15351988 139.29542894 48.10925117 139.31719017 44.06486893 C139.33749053 40.26132508 139.343847 36.45801754 139.33932304 32.65442467 C139.34015115 31.25555196 139.34615527 29.85667169 139.35761642 28.45784569 C139.37245783 26.55371127 139.36718555 24.64945121 139.36076355 22.74526978 C139.36352893 21.6778335 139.36629431 20.61039722 139.36914349 19.5106144 C139.24732614 18.68211164 139.12550879 17.85360889 139 17 C125.76207197 8.17471465 103.02013264 9.97375526 88.15917969 12.5546875 C74.46336194 15.37933377 60.62698198 21.24867868 49 29 C48.5254169 31.01076785 48.5254169 31.01076785 48.56762695 33.35791016 C48.54783279 34.25869293 48.52803864 35.15947571 48.50764465 36.08755493 C48.50125473 37.06155243 48.49486481 38.03554993 48.48828125 39.0390625 C48.46135445 40.53305069 48.46135445 40.53305069 48.43388367 42.05722046 C48.37959002 45.24643689 48.34582383 48.43550209 48.3125 51.625 C48.27934376 53.78387531 48.24485571 55.9427306 48.20898438 58.1015625 C48.123853 63.40090603 48.05558425 68.70026869 48 74 C47.34 74 46.68 74 46 74 C46 74.66 46 75.32 46 76 C45.4225 76.2475 44.845 76.495 44.25 76.75 C41.86550111 77.93990475 41.86550111 77.93990475 39.875 80.125 C39.25625 80.74375 38.6375 81.3625 38 82 C37.34 82 36.68 82 36 82 C36.00967804 81.34933563 36.01935608 80.69867126 36.02932739 80.02828979 C36.12036865 73.24678825 36.14140746 66.46761321 36.12207031 59.68554688 C36.12401524 57.15584729 36.14372226 54.62609582 36.18164062 52.09667969 C36.23311797 48.4560872 36.22039659 44.82045912 36.1953125 41.1796875 C36.22505157 40.05134491 36.25479065 38.92300232 36.28543091 37.76046753 C36.22702224 34.54481537 36.07821878 32.03321159 35 29 C31.9800183 26.20421442 28.76105527 24.60536892 25 23 C23.89011719 22.41992188 22.78023438 21.83984375 21.63671875 21.2421875 C-2.7548474 9.93483895 -29.67709283 6.87083713 -55 17 Z " fill="#262828" transform="translate(211,90)"/>
<path d="M0 0 C4.60898726 2.08308335 7.64574224 5.27799251 11.1875 8.8125 C11.82880859 9.42931641 12.47011719 10.04613281 13.13085938 10.68164062 C15.63941374 13.1743013 17.68623154 15.40448027 19.33984375 18.54296875 C18.75467474 22.7736734 15.50446648 24.82681251 12.375 27.5 C10.99134766 28.72936432 9.60988211 29.9611937 8.23046875 31.1953125 C7.52583496 31.82083008 6.82120117 32.44634766 6.09521484 33.09082031 C2.24959815 36.59498281 -1.35430747 40.3408456 -4.96142578 44.08789062 C-6.2721671 45.4275546 -7.63181633 46.71905666 -9 48 C-9.66 48 -10.32 48 -11 48 C-11 48.66 -11 49.32 -11 50 C-12.875 52.125 -12.875 52.125 -15 54 C-15.66 54 -16.32 54 -17 54 C-17 54.66 -17 55.32 -17 56 C-18.45996094 57.45629883 -18.45996094 57.45629883 -20.484375 59.14453125 C-24.86293598 62.86938887 -29.06938343 66.74281969 -33.25 70.6875 C-33.98726318 71.38157959 -34.72452637 72.07565918 -35.48413086 72.79077148 C-40.42443346 77.46046084 -45.26118635 82.21798546 -50.03637695 87.05566406 C-53.16149799 90.20731966 -56.39860475 93.13610867 -59.78515625 96 C-63.55816038 99.40701607 -67.0794034 103.07718811 -70.60913086 106.73413086 C-72.03662372 108.19235461 -73.51457257 109.60083677 -75 111 C-75.66 111 -76.32 111 -77 111 C-77 111.66 -77 112.32 -77 113 C-78.64453125 114.69140625 -78.64453125 114.69140625 -80.8125 116.5625 C-81.87404297 117.49255859 -81.87404297 117.49255859 -82.95703125 118.44140625 C-85 120 -85 120 -88 121 C-89.20882096 123.00016466 -89.20882096 123.00016466 -90 125 C-92.16874252 124.49396008 -93.99967627 124.00016187 -96 123 C-96 122.34 -96 121.68 -96 121 C-96.66 121 -97.32 121 -98 121 C-98 120.34 -98 119.68 -98 119 C-98.56460938 118.76410156 -99.12921875 118.52820313 -99.7109375 118.28515625 C-102.52071963 116.70765058 -104.39619051 114.75948714 -106.625 112.4375 C-109.51070681 109.30957946 -109.51070681 109.30957946 -113 107 C-113 106.34 -113 105.68 -113 105 C-113.66 105 -114.32 105 -115 105 C-115 104.34 -115 103.68 -115 103 C-115.66 103 -116.32 103 -117 103 C-118.73018229 101.37381774 -120.36317911 99.71701096 -122 98 C-123.23064216 96.75280515 -124.46388994 95.50817795 -125.69921875 94.265625 C-126.35083984 93.60949219 -127.00246094 92.95335937 -127.67382812 92.27734375 C-128.33833984 91.60832031 -129.00285156 90.93929687 -129.6875 90.25 C-130.36361328 89.56550781 -131.03972656 88.88101563 -131.73632812 88.17578125 C-132.38408203 87.52480469 -133.03183594 86.87382812 -133.69921875 86.203125 C-134.57839966 85.31608887 -134.57839966 85.31608887 -135.4753418 84.41113281 C-136.96381818 82.90170176 -136.96381818 82.90170176 -139 82 C-139 81.34 -139 80.68 -139 80 C-139.66 80 -140.32 80 -141 80 C-141 79.34 -141 78.68 -141 78 C-141.66 78 -142.32 78 -143 78 C-141.49705671 72.77453491 -138.12476316 69.61089704 -134.4375 65.8125 C-133.24678335 64.5708436 -132.05789032 63.32743506 -130.87109375 62.08203125 C-130.08109985 61.26569214 -130.08109985 61.26569214 -129.27514648 60.43286133 C-127.89521072 59.00753377 -127.89521072 59.00753377 -127 57 C-121.99099772 57.37720632 -119.50318282 59.9714139 -116.18359375 63.42578125 C-115.37608421 64.24178047 -115.37608421 64.24178047 -114.55226135 65.07426453 C-112.83769423 66.81115265 -111.1375479 68.56140973 -109.4375 70.3125 C-108.29064543 71.47943221 -107.14286799 72.6454582 -105.99414062 73.81054688 C-103.88020426 75.95708233 -101.77175864 78.10870056 -99.66967773 80.2668457 C-97.46171538 82.52730647 -95.240299 84.77167232 -93 87 C-89.78521433 85.59795691 -87.76085863 83.92902488 -85.375 81.375 C-83.5859375 79.4609375 -83.5859375 79.4609375 -82 78 C-81.34 78 -80.68 78 -80 78 C-80 77.34 -80 76.68 -80 76 C-79.34 76 -78.68 76 -78 76 C-78 75.34 -78 74.68 -78 74 C-77.34 74 -76.68 74 -76 74 C-76 73.34 -76 72.68 -76 72 C-75.34 72 -74.68 72 -74 72 C-74 71.34 -74 70.68 -74 70 C-73.34 70 -72.68 70 -72 70 C-72 69.34 -72 68.68 -72 68 C-71.34 68 -70.68 68 -70 68 C-70 67.34 -70 66.68 -70 66 C-68.6015625 64.625 -68.6015625 64.625 -66.625 63 C-62.17078591 59.23777988 -58.14316468 55.13941718 -54.1015625 50.94140625 C-52 49 -52 49 -50 49 C-50 48.34 -50 47.68 -50 47 C-48.49609375 45.51953125 -48.49609375 45.51953125 -46.4375 43.8125 C-42.89003826 40.81322507 -39.63477128 37.66004868 -36.4453125 34.28515625 C-35 33 -35 33 -33 33 C-33 32.34 -33 31.68 -33 31 C-32.34 31 -31.68 31 -31 31 C-31 30.34 -31 29.68 -31 29 C-30.34 29 -29.68 29 -29 29 C-29 28.34 -29 27.68 -29 27 C-28.34 27 -27.68 27 -27 27 C-27 26.34 -27 25.68 -27 25 C-26.34 25 -25.68 25 -25 25 C-25 24.34 -25 23.68 -25 23 C-23.53125 21.5546875 -23.53125 21.5546875 -21.5 19.875 C-17.6500766 16.62106119 -14.13935665 13.15227282 -10.6640625 9.50390625 C-9 8 -9 8 -7 8 C-7 7.34 -7 6.68 -7 6 C-6.34 6 -5.68 6 -5 6 C-5 5.34 -5 4.68 -5 4 C-4.34 4 -3.68 4 -3 4 C-3 3.34 -3 2.68 -3 2 C-2.01 1.34 -1.02 0.68 0 0 Z " fill="#8AC02D" transform="translate(322,116)"/>
<path d="M0 0 C4.29 0 8.58 0 13 0 C13 47.85 13 95.7 13 145 C14.98 144.01 14.98 144.01 17 143 C18.32 143 19.64 143 21 143 C21 142.34 21 141.68 21 141 C23.54013909 140.1824493 26.08193231 139.37084814 28.625 138.5625 C29.69427734 138.21735352 29.69427734 138.21735352 30.78515625 137.86523438 C31.48769531 137.64287109 32.19023437 137.42050781 32.9140625 137.19140625 C33.5529541 136.98717041 34.1918457 136.78293457 34.85009766 136.57250977 C55.95409185 130.9526067 81.71803222 134.19221708 101 144 C101.66 144.66 102.32 145.32 103 146 C69.01 146 35.02 146 0 146 C0 97.82 0 49.64 0 0 Z " fill="#38AAB7" transform="translate(131,126)"/>
<path d="M0 0 C4.29 0 8.58 0 13 0 C13 48.18 13 96.36 13 146 C-20.99 146 -54.98 146 -90 146 C-86.33834247 143.25375685 -83.7995073 142.00050656 -79.5625 140.5 C-77.89380859 139.89671875 -77.89380859 139.89671875 -76.19140625 139.28125 C-65.82113724 135.96607777 -55.88594199 134.41688826 -45 134.4375 C-43.74413086 134.4384668 -42.48826172 134.43943359 -41.19433594 134.44042969 C-26.06157667 134.72173639 -13.76812416 138.88083371 0 145 C0 97.15 0 49.3 0 0 Z " fill="#3AACB9" transform="translate(363,126)"/>
<path d="M0 0 C3.96 0 7.92 0 12 0 C15.79935117 7.40161785 19.42671176 14.78379892 22.53515625 22.5078125 C23.74268569 25.38656268 25.0038859 28.21954742 26.30859375 31.0546875 C26.71996582 31.95106934 27.13133789 32.84745117 27.55517578 33.77099609 C28.38209264 35.56580709 29.21494178 37.35789888 30.05419922 39.14697266 C30.43463379 39.97503418 30.81506836 40.8030957 31.20703125 41.65625 C31.5522583 42.39681641 31.89748535 43.13738281 32.25317383 43.90039062 C33 46 33 46 33 50 C29.04 50 25.08 50 21 50 C17 42.25 17 42.25 17 40 C9.74 40 2.48 40 -5 40 C-5.99 43.3 -6.98 46.6 -8 50 C-12.29 50 -16.58 50 -21 50 C-18.93235072 42.59821968 -16.3106204 35.70335011 -13.1875 28.6875 C-12.74535156 27.68291748 -12.30320312 26.67833496 -11.84765625 25.64331055 C-8.04418787 17.0278152 -4.21234944 8.42469888 0 0 Z M5 15 C3.35 19.62 1.7 24.24 0 29 C3.96 29 7.92 29 12 29 C10.50829734 24.0276578 8.39542583 19.58154261 6 15 C5.67 15 5.34 15 5 15 Z " fill="#43AAB5" transform="translate(321,332)"/>
<path d="M0 0 C3.96 0 7.92 0 12 0 C15.33217779 5.30680167 17.50746067 10.75737905 19.6953125 16.62109375 C21.58439985 21.51349062 23.76631817 26.25699049 26 31 C30.31352198 22.56561955 34.51202558 14.17755753 37.9921875 5.35546875 C39 3 39 3 41 0 C43.6015625 -0.29296875 43.6015625 -0.29296875 46.625 -0.1875 C48.12933594 -0.14689453 48.12933594 -0.14689453 49.6640625 -0.10546875 C50.43492187 -0.07066406 51.20578125 -0.03585937 52 0 C53.15738294 3.47214881 52.90079648 3.845482 51.41015625 7 C51.04172607 7.79567383 50.6732959 8.59134766 50.29370117 9.41113281 C49.68425659 10.69262207 49.68425659 10.69262207 49.0625 12 C48.22446401 13.80631956 47.38857846 15.61363814 46.5546875 17.421875 C45.91418457 18.80729492 45.91418457 18.80729492 45.26074219 20.22070312 C42.96551325 25.28051843 40.85199379 30.41606821 38.74047852 35.5546875 C37.84639349 37.71211729 36.93096251 39.85824237 36 42 C35.67725098 42.75474609 35.35450195 43.50949219 35.02197266 44.28710938 C34.69116699 45.01220703 34.36036133 45.73730469 34.01953125 46.484375 C33.72796143 47.13631836 33.4363916 47.78826172 33.13598633 48.45996094 C32 50 32 50 30.1262207 50.72338867 C26.58493224 51.18409367 23.4094616 51.15238003 20 50 C18.0390625 47.46484375 18.0390625 47.46484375 16.625 43.9375 C16.2213623 42.97154907 16.2213623 42.97154907 15.80957031 41.98608398 C15.19891248 40.51552369 14.6028981 39.03883066 14.01855469 37.55761719 C12.86809009 34.66877079 11.66025197 31.80762751 10.4453125 28.9453125 C0 4.25622033 0 4.25622033 0 0 Z " fill="#2D2D2D" transform="translate(137,332)"/>
<path d="M0 0 C4.54149383 2.84868743 7.57965624 5.62899995 9.19140625 10.8671875 C9.68621074 14.19587228 9.99889197 17.50814515 10.19140625 20.8671875 C6.92182454 23.04690864 5.97582387 23.11518943 2.19140625 23.09765625 C1.22203125 23.09572266 0.25265625 23.09378906 -0.74609375 23.09179688 C-2.26203125 23.07342773 -2.26203125 23.07342773 -3.80859375 23.0546875 C-4.81921875 23.05404297 -5.82984375 23.05339844 -6.87109375 23.05273438 C-14.38687743 23.00775961 -14.38687743 23.00775961 -17.80859375 21.8671875 C-17.47859375 23.1871875 -17.14859375 24.5071875 -16.80859375 25.8671875 C-12.31690644 27.3644166 -6.88691271 27.8486159 -2.55859375 25.8046875 C-1.69234375 25.340625 -1.69234375 25.340625 -0.80859375 24.8671875 C2.990452 25.10462786 4.72013306 27.13113504 7.19140625 29.8671875 C5.66960895 34.12821994 3.07713077 35.72670839 -0.80859375 37.8671875 C-3.65766182 38.20304168 -6.04867537 38.34232933 -8.87109375 38.2421875 C-9.56525391 38.24089844 -10.25941406 38.23960937 -10.97460938 38.23828125 C-15.00120379 38.16945058 -18.1845808 37.63327568 -21.80859375 35.8671875 C-21.80859375 35.2071875 -21.80859375 34.5471875 -21.80859375 33.8671875 C-22.4221875 33.76921875 -23.03578125 33.67125 -23.66796875 33.5703125 C-25.80859375 32.8671875 -25.80859375 32.8671875 -28.05859375 29.6171875 C-31.0918886 22.97511103 -30.93868621 15.19798633 -28.62109375 8.3671875 C-21.75550968 -1.10258364 -11.2667032 -4.54428919 0 0 Z M-14.12109375 8.9921875 C-17.17563222 10.80517035 -17.17563222 10.80517035 -18.80859375 14.8671875 C-13.52859375 14.8671875 -8.24859375 14.8671875 -2.80859375 14.8671875 C-3.13859375 13.2171875 -3.46859375 11.5671875 -3.80859375 9.8671875 C-7.84121424 8.33479171 -9.96528479 7.58078068 -14.12109375 8.9921875 Z " fill="#303030" transform="translate(216.80859375,344.1328125)"/>
<path d="M0 0 C4.29 0 8.58 0 13 0 C13 47.85 13 95.7 13 145 C14.98 144.01 14.98 144.01 17 143 C18.32 143 19.64 143 21 143 C21 142.34 21 141.68 21 141 C23.54013909 140.1824493 26.08193231 139.37084814 28.625 138.5625 C29.69427734 138.21735352 29.69427734 138.21735352 30.78515625 137.86523438 C31.48769531 137.64287109 32.19023437 137.42050781 32.9140625 137.19140625 C33.5529541 136.98717041 34.1918457 136.78293457 34.85009766 136.57250977 C55.95409185 130.9526067 81.71803222 134.19221708 101 144 C101.66 144.66 102.32 145.32 103 146 C69.01 146 35.02 146 0 146 C0 97.82 0 49.64 0 0 Z M1 1 C1 48.52 1 96.04 1 145 C4.63 145 8.26 145 12 145 C12 97.48 12 49.96 12 1 C8.37 1 4.74 1 1 1 Z " fill="#37A9B5" transform="translate(131,126)"/>
<path d="M0 0 C4.29 0 8.58 0 13 0 C13 48.18 13 96.36 13 146 C-20.99 146 -54.98 146 -90 146 C-86.33834247 143.25375685 -83.7995073 142.00050656 -79.5625 140.5 C-77.89380859 139.89671875 -77.89380859 139.89671875 -76.19140625 139.28125 C-65.82113724 135.96607777 -55.88594199 134.41688826 -45 134.4375 C-43.74413086 134.4384668 -42.48826172 134.43943359 -41.19433594 134.44042969 C-26.06157667 134.72173639 -13.76812416 138.88083371 0 145 C0 97.15 0 49.3 0 0 Z M1 1 C1 48.52 1 96.04 1 145 C4.63 145 8.26 145 12 145 C12 97.48 12 49.96 12 1 C8.37 1 4.74 1 1 1 Z " fill="#38A9B6" transform="translate(363,126)"/>
<path d="M0 0 C1.1653125 -0.00257813 2.330625 -0.00515625 3.53125 -0.0078125 C6.5 0.125 6.5 0.125 8.5 1.125 C8.625 8.875 8.625 8.875 7.5 11.125 C6.18 11.125 4.86 11.125 3.5 11.125 C3.5 10.465 3.5 9.805 3.5 9.125 C-0.28393339 10.24423892 -0.28393339 10.24423892 -2.6640625 13.203125 C-2.93992187 13.83734375 -3.21578125 14.4715625 -3.5 15.125 C-2.86191406 15.11339844 -2.22382813 15.10179687 -1.56640625 15.08984375 C-0.74011719 15.08082031 0.08617187 15.07179688 0.9375 15.0625 C1.76121094 15.05089844 2.58492188 15.03929687 3.43359375 15.02734375 C5.5 15.125 5.5 15.125 6.5 16.125 C6.5979057 17.62238124 6.62974864 19.12442892 6.625 20.625 C6.62886719 21.84703125 6.62886719 21.84703125 6.6328125 23.09375 C6.5 25.125 6.5 25.125 5.5 26.125 C3.98071962 26.19679964 2.45832518 26.20892007 0.9375 26.1875 C0.11121094 26.17847656 -0.71507812 26.16945313 -1.56640625 26.16015625 C-2.52353516 26.14275391 -2.52353516 26.14275391 -3.5 26.125 C-3.4278125 27.08019531 -3.355625 28.03539062 -3.28125 29.01953125 C-1.73278117 50.59056234 -1.73278117 50.59056234 -3.5 54.125 C-5.31242052 54.15187279 -7.12495233 54.17133715 -8.9375 54.1875 C-9.94683594 54.19910156 -10.95617187 54.21070313 -11.99609375 54.22265625 C-14.5 54.125 -14.5 54.125 -15.5 53.125 C-15.58758003 51.12535018 -15.60696576 49.1226389 -15.59765625 47.12109375 C-15.59443359 45.90615234 -15.59121094 44.69121094 -15.58789062 43.43945312 C-15.57951172 42.16005859 -15.57113281 40.88066406 -15.5625 39.5625 C-15.55798828 38.27923828 -15.55347656 36.99597656 -15.54882812 35.67382812 C-15.53699545 32.49083978 -15.52051068 29.30794238 -15.5 26.125 C-16.304375 25.980625 -17.10875 25.83625 -17.9375 25.6875 C-20.5 25.125 -20.5 25.125 -21.5 24.125 C-21.64115161 21.45441149 -21.54247107 18.80067762 -21.5 16.125 C-19.52 15.795 -17.54 15.465 -15.5 15.125 C-15.41363281 14.53332031 -15.32726562 13.94164062 -15.23828125 13.33203125 C-14.25168512 7.78355945 -13.06563473 4.77750778 -8.5 1.125 C-5.64804778 -0.30097611 -3.17538825 -0.0070252 0 0 Z " fill="#353536" transform="translate(297.5,327.875)"/>
<path d="M0 0 C11 0 11 0 15 1 C15.33 0.67 15.66 0.34 16 0 C18.67058851 -0.14115161 21.32432238 -0.04247107 24 0 C25.49297212 2.98594424 25.11755228 5.70853624 25 9 C24.67 9.66 24.34 10.32 24 11 C21.72099733 11.52180687 19.44484964 11.82855181 17.12890625 12.14453125 C14.78385212 12.81236583 14.78385212 12.81236583 13.89282227 15.23583984 C13.005606 17.98264393 12.6917378 20.20778973 12.5859375 23.08203125 C12.52792969 24.47905273 12.52792969 24.47905273 12.46875 25.90429688 C12.4378125 26.86400391 12.406875 27.82371094 12.375 28.8125 C12.31699219 30.28106445 12.31699219 30.28106445 12.2578125 31.77929688 C12.16389629 34.1858998 12.08087436 36.59292351 12 39 C8.04 39 4.08 39 0 39 C0 26.13 0 13.26 0 0 Z " fill="#454545" transform="translate(232,343)"/>
<path d="M0 0 C3.96 0 7.92 0 12 0 C12 16.5 12 33 12 50 C8.04 50 4.08 50 0 50 C0 33.5 0 17 0 0 Z " fill="#3DA7B1" transform="translate(358,332)"/>
<path d="M0 0 C3.63 0 7.26 0 11 0 C12 1 12 1 12.11352539 4.60180664 C12.11336625 6.20459856 12.10767063 7.8073956 12.09765625 9.41015625 C12.0962413 10.25219101 12.09482635 11.09422577 12.09336853 11.96177673 C12.08775263 14.66205335 12.07519748 17.36224828 12.0625 20.0625 C12.05748705 21.88867068 12.05292379 23.71484266 12.04882812 25.54101562 C12.03777804 30.02737542 12.02050279 34.51367384 12 39 C8.04 39 4.08 39 0 39 C0 26.13 0 13.26 0 0 Z " fill="#3F3F40" transform="translate(261,343)"/>
<path d="M0 0 C4.29 0 8.58 0 13 0 C13 47.85 13 95.7 13 145 C14.98 144.01 14.98 144.01 17 143 C18.32 143 19.64 143 21 143 C21 142.34 21 141.68 21 141 C22.65 140.67 24.3 140.34 26 140 C25.67 140.66 25.34 141.32 25 142 C24.01 142 23.02 142 22 142 C22 142.66 22 143.32 22 144 C45.76 144 69.52 144 94 144 C94 143.34 94 142.68 94 142 C96.97 142.99 99.94 143.98 103 145 C103 145.33 103 145.66 103 146 C69.01 146 35.02 146 0 146 C0 97.82 0 49.64 0 0 Z M1 1 C1 48.52 1 96.04 1 145 C4.63 145 8.26 145 12 145 C12 97.48 12 49.96 12 1 C8.37 1 4.74 1 1 1 Z " fill="#409098" transform="translate(131,126)"/>
<path d="M0 0 C4.29 0 8.58 0 13 0 C13 48.18 13 96.36 13 146 C-20.99 146 -54.98 146 -90 146 C-85.7631747 143.88158735 -82.95023197 143.75914465 -78.38574219 143.86474609 C-77.62437958 143.87420761 -76.86301697 143.88366913 -76.07858276 143.89341736 C-73.56776595 143.92703379 -71.05744924 143.97516535 -68.546875 144.0234375 C-66.80382587 144.04961097 -65.0607629 144.07487747 -63.31768799 144.09927368 C-58.73411526 144.16586252 -54.15083415 144.24476878 -49.56750488 144.32623291 C-44.88886695 144.40721362 -40.21005817 144.47655599 -35.53125 144.546875 C-26.35396187 144.68652 -17.17693972 144.83917688 -8 145 C-8 144.34 -8 143.68 -8 143 C-5.23723823 143.52268466 -2.6739124 144.10869587 0 145 C0 97.15 0 49.3 0 0 Z M1 1 C1 48.52 1 96.04 1 145 C4.63 145 8.26 145 12 145 C12 97.48 12 49.96 12 1 C8.37 1 4.74 1 1 1 Z " fill="#40939D" transform="translate(363,126)"/>
<path d="M0 0 C1.51400391 0.01740234 1.51400391 0.01740234 3.05859375 0.03515625 C4.07050781 0.04417969 5.08242187 0.05320312 6.125 0.0625 C7.29869141 0.07990234 7.29869141 0.07990234 8.49609375 0.09765625 C9.6818581 3.65494931 9.30253802 4.14695117 7.765625 7.4140625 C7.37439453 8.26162109 6.98316406 9.10917969 6.58007812 9.98242188 C6.16048828 10.86607422 5.74089844 11.74972656 5.30859375 12.66015625 C4.50046608 14.38962755 3.6944728 16.1200978 2.890625 17.8515625 C2.49311035 18.70766113 2.0955957 19.56375977 1.68603516 20.44580078 C-0.18181555 24.6084176 -1.85496107 28.84439295 -3.50390625 33.09765625 C-4.16390625 32.10765625 -4.82390625 31.11765625 -5.50390625 30.09765625 C-6.49390625 29.76765625 -7.48390625 29.43765625 -8.50390625 29.09765625 C-8.50390625 27.77765625 -8.50390625 26.45765625 -8.50390625 25.09765625 C-10.15390625 25.42765625 -11.80390625 25.75765625 -13.50390625 26.09765625 C-11.67661802 20.07835384 -9.39656737 14.35450722 -6.87890625 8.59765625 C-6.5655835 7.87900391 -6.25226074 7.16035156 -5.92944336 6.41992188 C-3.14616403 0.12270531 -3.14616403 0.12270531 0 0 Z " fill="#353535" transform="translate(180.50390625,331.90234375)"/>
<path d="M0 0 C0.33 0.66 0.66 1.32 1 2 C1.99 2.33 2.98 2.66 4 3 C5.33500455 8.34001821 4.512545 11.83955235 3 17 C7.29 17 11.58 17 16 17 C15.67 17.66 15.34 18.32 15 19 C15.99 19.66 16.98 20.32 18 21 C16 23 16 23 12.0859375 23.1953125 C10.51550649 23.18200376 8.94513779 23.15813602 7.375 23.125 C6.57320313 23.11597656 5.77140625 23.10695313 4.9453125 23.09765625 C2.96341477 23.07406223 0.98167019 23.03819065 -1 23 C-1 23.66 -1 24.32 -1 25 C-2.98 24.34 -4.96 23.68 -7 23 C-7 22.01 -7 21.02 -7 20 C-7.17789062 19.36320312 -7.35578125 18.72640625 -7.5390625 18.0703125 C-8.3280685 14.52647201 -7.49756568 11.26872509 -6 8 C-3.375 6.5 -3.375 6.5 -1 6 C-1.33 5.34 -1.66 4.68 -2 4 C-1.0625 1.875 -1.0625 1.875 0 0 Z " fill="#3CAAB4" transform="translate(317,346)"/>
<path d="M0 0 C1.1653125 -0.00257813 2.330625 -0.00515625 3.53125 -0.0078125 C6.5 0.125 6.5 0.125 8.5 1.125 C8.625 8.875 8.625 8.875 7.5 11.125 C6.18 11.125 4.86 11.125 3.5 11.125 C3.5 10.465 3.5 9.805 3.5 9.125 C1.03770003 9.84245356 1.03770003 9.84245356 -1.5 11.125 C-2.16 12.445 -2.82 13.765 -3.5 15.125 C-0.53 15.125 2.44 15.125 5.5 15.125 C5.5 15.455 5.5 15.785 5.5 16.125 C2.2 16.125 -1.1 16.125 -4.5 16.125 C-4.5 13.155 -4.5 10.185 -4.5 7.125 C-7.53292954 8.26583176 -7.53292954 8.26583176 -10.5 10.125 C-11.46906827 12.70914426 -11.46906827 12.70914426 -11.5 15.125 C-14.14 15.455 -16.78 15.785 -19.5 16.125 C-18.18 15.795 -16.86 15.465 -15.5 15.125 C-15.41363281 14.53332031 -15.32726562 13.94164062 -15.23828125 13.33203125 C-14.25168512 7.78355945 -13.06563473 4.77750778 -8.5 1.125 C-5.64804778 -0.30097611 -3.17538825 -0.0070252 0 0 Z " fill="#373838" transform="translate(297.5,327.875)"/>
<path d="M0 0 C0.23009766 0.92425781 0.23009766 0.92425781 0.46484375 1.8671875 C0.82154717 3.28879381 1.18744479 4.70812477 1.5625 6.125 C2 8 2 8 2 10 C5.38805161 12.25870108 6.77350741 12.29259413 10.76171875 12.4140625 C11.87998047 12.45273437 12.99824219 12.49140625 14.15039062 12.53125 C15.31763672 12.5621875 16.48488281 12.593125 17.6875 12.625 C18.86634766 12.66367187 20.04519531 12.70234375 21.25976562 12.7421875 C24.17301977 12.83654391 27.08626607 12.92213161 30 13 C29.67 13.99 29.34 14.98 29 16 C29 15.34 29 14.68 29 14 C21.74 14 14.48 14 7 14 C6.01 17.3 5.02 20.6 4 24 C-0.29 24 -4.58 24 -9 24 C-6.7183577 15.63397824 -3.51779922 7.90081767 0 0 Z " fill="#74C9D4" transform="translate(309,358)"/>
<path d="M0 0 C3 2 3 2 3.43237305 3.87939453 C3.45855713 4.62302246 3.48474121 5.36665039 3.51171875 6.1328125 C3.54716797 6.93847656 3.58261719 7.74414062 3.61914062 8.57421875 C3.64169922 9.41597656 3.66425781 10.25773437 3.6875 11.125 C3.73874023 12.39923828 3.73874023 12.39923828 3.79101562 13.69921875 C3.87359173 15.79901105 3.93846978 17.89948564 4 20 C0.04 20 -3.92 20 -8 20 C-8.0809723 17.56183415 -8.14046972 15.12635616 -8.1875 12.6875 C-8.21263672 11.99720703 -8.23777344 11.30691406 -8.26367188 10.59570312 C-8.33791005 5.47326884 -8.33791005 5.47326884 -6.64453125 3.1015625 C-4.46645857 1.64261595 -2.53382852 0.69680284 0 0 Z " fill="#313131" transform="translate(240,362)"/>
<path d="M0 0 C0.33 0 0.66 0 1 0 C1 47.52 1 95.04 1 144 C-6.82518043 142.88211708 -6.82518043 142.88211708 -11 141.0625 C-14.96404718 139.39566059 -18.84151196 138.08482297 -23 137 C-19.02836687 135.41134675 -15.8523202 136.70838387 -12 138 C-10.83791016 138.36351562 -10.83791016 138.36351562 -9.65234375 138.734375 C-6.03085794 139.88853958 -3.19280268 140.87146488 0 143 C-0.00607553 142.26909181 -0.01215105 141.53818361 -0.01841068 140.78512669 C-0.16568286 123.02623082 -0.30742593 105.26729878 -0.4429636 87.50830936 C-0.50864201 78.9203102 -0.57621344 70.33233362 -0.64819336 61.74438477 C-0.71090331 54.26187228 -0.77011039 46.77934182 -0.82505554 39.29676813 C-0.85429051 35.33233577 -0.88531714 31.3679352 -0.92053413 27.4035511 C-0.95358822 23.67642827 -0.98197857 19.94929975 -1.00670624 16.22211266 C-1.01664569 14.85023248 -1.02832662 13.4783637 -1.04183006 12.10651398 C-1.05993478 10.24142298 -1.07131435 8.37627023 -1.08229065 6.51112366 C-1.09058679 5.46488862 -1.09888292 4.41865358 -1.10743046 3.34071445 C-1 1 -1 1 0 0 Z " fill="#102725" transform="translate(361,126)"/>
<path d="M0 0 C1.485 0.99 1.485 0.99 3 2 C2.34 2 1.68 2 1 2 C1.01252808 3.06107468 1.02505615 4.12214935 1.03796387 5.21537781 C1.15648931 15.26244797 1.2742063 25.30952733 1.39115143 35.35661602 C1.45128538 40.52070779 1.51169457 45.68479603 1.57275391 50.84887695 C1.63177544 55.84149742 1.69004638 60.83412616 1.74781799 65.82676125 C1.76988019 67.72233194 1.79220338 69.61789962 1.81480408 71.51346397 C1.9357968 81.676211 2.03669524 91.83636403 2 102 C1.34 102 0.68 102 0 102 C-1.75116734 68.03853126 -1.45198718 33.9672319 0 0 Z " fill="#535554" transform="translate(155,105)"/>
<path d="M0 0 C0.66 0.33 1.32 0.66 2 1 C2.85056945 4.55692677 3.16909807 6.49270578 2 10 C1.34 10 0.68 10 0 10 C-0.33 10.99 -0.66 11.98 -1 13 C-3.64 12.67 -6.28 12.34 -9 12 C-9 11.34 -9 10.68 -9 10 C-9.66 10 -10.32 10 -11 10 C-12.02214896 6.74770785 -12.18671298 5.41076857 -10.75 2.25 C-7.58560532 -1.81850745 -4.63444401 -0.98605192 0 0 Z " fill="#333334" transform="translate(271,327)"/>
<path d="M0 0 C3.96 0 7.92 0 12 0 C12 5.28 12 10.56 12 16 C11.67 16 11.34 16 11 16 C11 11.05 11 6.1 11 1 C7.7 1 4.4 1 1 1 C1.33 15.52 1.66 30.04 2 45 C3.98 44.505 3.98 44.505 6 44 C7.32 44 8.64 44 10 44 C10.66 43.34 11.32 42.68 12 42 C12 44.64 12 47.28 12 50 C8.04 50 4.08 50 0 50 C0 33.5 0 17 0 0 Z " fill="#66B4B7" transform="translate(358,332)"/>
<path d="M0 0 C1.95766281 -0.08082094 3.91626728 -0.13910778 5.875 -0.1875 C7.51082031 -0.23970703 7.51082031 -0.23970703 9.1796875 -0.29296875 C10.11039063 -0.19628906 11.04109375 -0.09960938 12 0 C14.4294516 3.6441774 14.16179575 5.71241272 14 10 C13.401875 9.773125 12.80375 9.54625 12.1875 9.3125 C11.465625 9.209375 10.74375 9.10625 10 9 C8.39588754 10.35405861 8.39588754 10.35405861 7 12 C6.01 12.33 5.02 12.66 4 13 C3.32694982 11.39850114 2.66177773 9.79368971 2 8.1875 C1.62875 7.29417969 1.2575 6.40085937 0.875 5.48046875 C0 3 0 3 0 0 Z " fill="#292929" transform="translate(137,332)"/>
<path d="M0 0 C2.41018108 2.9968234 4.08914691 6.00570256 5.6875 9.5 C6.12449219 10.4384375 6.56148438 11.376875 7.01171875 12.34375 C8 15 8 15 8 19 C4.04 19 0.08 19 -4 19 C-4.33 18.01 -4.66 17.02 -5 16 C-3.68 14.68 -2.36 13.36 -1 12 C-2.32 11.67 -3.64 11.34 -5 11 C-5.33 9.68 -5.66 8.36 -6 7 C-3.36 7.99 -0.72 8.98 2 10 C1.67 8.68 1.34 7.36 1 6 C0.01 6.33 -0.98 6.66 -2 7 C-1.34 4.69 -0.68 2.38 0 0 Z " fill="#4CB1BA" transform="translate(346,363)"/>
<path d="M0 0 C0.33 0 0.66 0 1 0 C1 3.63 1 7.26 1 11 C4.63 11 8.26 11 12 11 C12 11.33 12 11.66 12 12 C-21.66 12 -55.32 12 -90 12 C-85.7631747 9.88158735 -82.95023197 9.75914465 -78.38574219 9.86474609 C-77.62437958 9.87420761 -76.86301697 9.88366913 -76.07858276 9.89341736 C-73.56776595 9.92703379 -71.05744924 9.97516535 -68.546875 10.0234375 C-66.80382587 10.04961097 -65.0607629 10.07487747 -63.31768799 10.09927368 C-58.73411526 10.16586252 -54.15083415 10.24476878 -49.56750488 10.32623291 C-44.88886695 10.40721362 -40.21005817 10.47655599 -35.53125 10.546875 C-26.35396187 10.68652 -17.17693972 10.83917688 -8 11 C-8 10.34 -8 9.68 -8 9 C-5.23723823 9.52268466 -2.6739124 10.10869587 0 11 C0 7.37 0 3.74 0 0 Z " fill="#459AA3" transform="translate(363,260)"/>
<path d="M0 0 C2.375 0.3125 2.375 0.3125 5 1 C5.66 1.99 6.32 2.98 7 4 C4.03 3.505 4.03 3.505 1 3 C0.67 3.99 0.34 4.98 0 6 C-0.99 6.33 -1.98 6.66 -3 7 C-3.67441131 8.6635479 -4.3400321 10.33066942 -5 12 C-7 14.3125 -7 14.3125 -9 16 C-9.66 16 -10.32 16 -11 16 C-9.33075929 19.04134491 -9.33075929 19.04134491 -7 20 C-7.99 20.33 -8.98 20.66 -10 21 C-9.67 21.66 -9.34 22.32 -9 23 C-8.01 23.33 -7.02 23.66 -6 24 C-6 25.65 -6 27.3 -6 29 C-8.03833424 27.7260411 -10.03852126 26.38938077 -12 25 C-12 24.34 -12 23.68 -12 23 C-12.66 23 -13.32 23 -14 23 C-14 22.34 -14 21.68 -14 21 C-14.66 21 -15.32 21 -16 21 C-14.49705671 15.77453491 -11.12476316 12.61089704 -7.4375 8.8125 C-6.24678335 7.5708436 -5.05789032 6.32743506 -3.87109375 5.08203125 C-3.34443115 4.53780518 -2.81776855 3.9935791 -2.27514648 3.43286133 C-0.89521072 2.00753377 -0.89521072 2.00753377 0 0 Z " fill="#A1C85D" transform="translate(195,173)"/>
<path d="M0 0 C0.66 0.33 1.32 0.66 2 1 C0.68 1.33 -0.64 1.66 -2 2 C-2 2.66 -2 3.32 -2 4 C21.76 4 45.52 4 70 4 C70 3.34 70 2.68 70 2 C72.97 2.99 75.94 3.98 79 5 C79 5.33 79 5.66 79 6 C50.95 6 22.9 6 -6 6 C-5.67 5.01 -5.34 4.02 -5 3 C-4.34 3 -3.68 3 -3 3 C-3 2.34 -3 1.68 -3 1 C-2.01 0.67 -1.02 0.34 0 0 Z " fill="#4097A0" transform="translate(155,266)"/>
<path d="M0 0 C0 0.66 0 1.32 0 2 C1.32 1.67 2.64 1.34 4 1 C4.75 2.625 4.75 2.625 5 5 C3.3125 8.25 3.3125 8.25 1 11 C-0.32 11 -1.64 11 -3 11 C-3 11.99 -3 12.98 -3 14 C-7.62 14 -12.24 14 -17 14 C-16.67 13.34 -16.34 12.68 -16 12 C-12.04 12.33 -8.08 12.66 -4 13 C-4.515625 12.071875 -5.03125 11.14375 -5.5625 10.1875 C-7 7 -7 7 -6 4 C-2.45714286 0 -2.45714286 0 0 0 Z " fill="#5DBCC5" transform="translate(337,348)"/>
<path d="M0 0 C0.66 0.33 1.32 0.66 2 1 C2 1.66 2 2.32 2 3 C2.66 3 3.32 3 4 3 C4 5.31 4 7.62 4 10 C-0.29 10 -4.58 10 -9 10 C-8.34 7.36 -7.68 4.72 -7 2 C-5.68 2.33 -4.36 2.66 -3 3 C-2.01 2.67 -1.02 2.34 0 2 C0 1.34 0 0.68 0 0 Z " fill="#36A6B2" transform="translate(309,372)"/>
<path d="M0 0 C0.99 0.33 1.98 0.66 3 1 C1.02 1.99 1.02 1.99 -1 3 C-1 3.66 -1 4.32 -1 5 C-2.64453125 6.69140625 -2.64453125 6.69140625 -4.8125 8.5625 C-5.87404297 9.49255859 -5.87404297 9.49255859 -6.95703125 10.44140625 C-9 12 -9 12 -12 13 C-13.20882096 15.00016466 -13.20882096 15.00016466 -14 17 C-16.16874252 16.49396008 -17.99967627 16.00016187 -20 15 C-20 14.34 -20 13.68 -20 13 C-20.66 13 -21.32 13 -22 13 C-22 12.34 -22 11.68 -22 11 C-22.639375 10.71125 -23.27875 10.4225 -23.9375 10.125 C-26 9 -26 9 -27 7 C-24.525 7.495 -24.525 7.495 -22 8 C-21.67 8.99 -21.34 9.98 -21 11 C-20.34 11 -19.68 11 -19 11 C-18.67 11.66 -18.34 12.32 -18 13 C-16.35 12.67 -14.7 12.34 -13 12 C-13 11.34 -13 10.68 -13 10 C-12.195625 9.71125 -11.39125 9.4225 -10.5625 9.125 C-7.8673532 8.26737432 -7.8673532 8.26737432 -7 6 C-6.34 6 -5.68 6 -5 6 C-4.67 4.68 -4.34 3.36 -4 2 C-2.68 2 -1.36 2 0 2 C0 1.34 0 0.68 0 0 Z " fill="#A1C360" transform="translate(246,224)"/>
<path d="M0 0 C0.33 0.66 0.66 1.32 1 2 C-1.41991443 6.71246495 -4.0562212 11.0901461 -8.9375 13.375 C-12.51464325 15.27307601 -13.77786204 17.17768854 -15.82421875 20.57421875 C-16.40623047 21.27998047 -16.40623047 21.27998047 -17 22 C-20 22 -20 22 -22 21 C-19.71643754 18.65861457 -17.42186626 16.32833018 -15.125 14 C-14.47402344 13.33226562 -13.82304687 12.66453125 -13.15234375 11.9765625 C-12.52714844 11.34492188 -11.90195312 10.71328125 -11.2578125 10.0625 C-10.6817627 9.47597656 -10.10571289 8.88945312 -9.51220703 8.28515625 C-8 7 -8 7 -6 7 C-6 6.34 -6 5.68 -6 5 C-4.04072937 3.2856382 -2.04119788 1.61594832 0 0 Z " fill="#9AC24E" transform="translate(278,158)"/>
<path d="M0 0 C0.33 0 0.66 0 1 0 C1 14.85 1 29.7 1 45 C-6.82518043 43.88211708 -6.82518043 43.88211708 -11 42.0625 C-14.96404718 40.39566059 -18.84151196 39.08482297 -23 38 C-19.02836687 36.41134675 -15.8523202 37.70838387 -12 39 C-11.22527344 39.24234375 -10.45054687 39.4846875 -9.65234375 39.734375 C-6.03085794 40.88853958 -3.19280268 41.87146488 0 44 C0 29.48 0 14.96 0 0 Z " fill="#133033" transform="translate(361,225)"/>
<path d="M0 0 C3.3 0 6.6 0 10 0 C10.33 1.65 10.66 3.3 11 5 C10.34 5 9.68 5 9 5 C9 5.66 9 6.32 9 7 C6.69 7 4.38 7 2 7 C2 11.29 2 15.58 2 20 C1.67 20 1.34 20 1 20 C0.67 13.4 0.34 6.8 0 0 Z " fill="#252525" transform="translate(232,344)"/>
<path d="M0 0 C1.8572168 -0.00386719 1.8572168 -0.00386719 3.75195312 -0.0078125 C5.03650391 -0.00007813 6.32105469 0.00765625 7.64453125 0.015625 C8.94068359 0.00789063 10.23683594 0.00015625 11.57226562 -0.0078125 C12.80654297 -0.00523437 14.04082031 -0.00265625 15.3125 0 C16.44324951 0.00225586 17.57399902 0.00451172 18.73901367 0.00683594 C21.45703125 0.265625 21.45703125 0.265625 23.45703125 2.265625 C22.68101562 2.29068115 21.905 2.3157373 21.10546875 2.34155273 C17.55585394 2.45830245 14.00645357 2.5806681 10.45703125 2.703125 C8.62591797 2.76209961 8.62591797 2.76209961 6.7578125 2.82226562 C0.59758561 3.03870603 -5.44426828 3.35844331 -11.54296875 4.265625 C-11.54296875 3.605625 -11.54296875 2.945625 -11.54296875 2.265625 C-7.56355201 0.39416083 -4.38075729 0.00871359 0 0 Z " fill="#193D41" transform="translate(177.54296875,258.734375)"/>
<path d="M0 0 C0.33 0 0.66 0 1 0 C1.02505615 0.72888428 1.0501123 1.45776855 1.07592773 2.20874023 C1.56015194 16.15022482 2.07722963 30.07991081 3 44 C2.01 44 1.02 44 0 44 C0 29.48 0 14.96 0 0 Z " fill="#363A39" transform="translate(154,180)"/>
<path d="M0 0 C0.33 0 0.66 0 1 0 C1 2.64 1 5.28 1 8 C-2.96 8 -6.92 8 -11 8 C-11 7.01 -11 6.02 -11 5 C-10.34 5 -9.68 5 -9 5 C-8.67 4.01 -8.34 3.02 -8 2 C-5.69 2 -3.38 2 -1 2 C-0.67 1.34 -0.34 0.68 0 0 Z " fill="#48ADB8" transform="translate(369,374)"/>
<path d="M0 0 C1.30517578 0.00322266 2.61035156 0.00644531 3.95507812 0.00976562 C5.25638672 -0.00634766 6.55769531 -0.02246094 7.8984375 -0.0390625 C9.76532227 -0.0400293 9.76532227 -0.0400293 11.66992188 -0.04101562 C12.81452881 -0.04399658 13.95913574 -0.04697754 15.13842773 -0.05004883 C18.01757812 0.32226562 18.01757812 0.32226562 21.01757812 3.32226562 C10.12757813 2.99226563 -0.76242187 2.66226562 -11.98242188 2.32226562 C-8.67560851 -0.98454774 -4.4981938 0.02565066 0 0 Z " fill="#183D40" transform="translate(315.982421875,258.677734375)"/>
<path d="M0 0 C0.33 0.99 0.66 1.98 1 3 C0.01 3.33 -0.98 3.66 -2 4 C-2.12375 4.5775 -2.2475 5.155 -2.375 5.75 C-3.30220487 9.08793754 -5.49930246 10.67792371 -8 13 C-8.515625 13.5775 -9.03125 14.155 -9.5625 14.75 C-11.33259292 16.28921123 -12.72327127 16.51705754 -15 17 C-16.3479743 17.63654342 -17.68596724 18.29605388 -19 19 C-17.71937515 17.2925002 -16.38232443 15.62626404 -15 14 C-14.34 14 -13.68 14 -13 14 C-13 13.34 -13 12.68 -13 12 C-12.34 12 -11.68 12 -11 12 C-11 11.34 -11 10.68 -11 10 C-10.34 10 -9.68 10 -9 10 C-9 9.34 -9 8.68 -9 8 C-8.34 8 -7.68 8 -7 8 C-7 7.34 -7 6.68 -7 6 C-6.34 6 -5.68 6 -5 6 C-5 5.34 -5 4.68 -5 4 C-3.37373596 2.61767557 -1.7074998 1.28062485 0 0 Z " fill="#A1C55A" transform="translate(302,135)"/>
<path d="M0 0 C3.96 0 7.92 0 12 0 C13.19725883 2.28703308 14.38297018 4.57884862 15.5625 6.875 C16.07586914 7.85146484 16.07586914 7.85146484 16.59960938 8.84765625 C17.46082891 10.53529857 18.23686703 12.26579593 19 14 C18.67 14.66 18.34 15.32 18 16 C15.16530348 13.58851169 14.30740043 11.38299862 13.1875 7.875 C12.26607747 5.21971426 12.26607747 5.21971426 11 3 C7.88904363 1.69889182 7.88904363 1.69889182 5 2 C4.67 2.66 4.34 3.32 4 4 C2.68 3.67 1.36 3.34 0 3 C0 2.01 0 1.02 0 0 Z " fill="#56B1B4" transform="translate(321,332)"/>
<path d="M0 0 C0.66 0.99 1.32 1.98 2 3 C2.99 3.33 3.98 3.66 5 4 C5 4.99 5 5.98 5 7 C0.71 7 -3.58 7 -8 7 C-8.33 6.34 -8.66 5.68 -9 5 C-8.34 4.67 -7.68 4.34 -7 4 C-6.67 3.34 -6.34 2.68 -6 2 C-4.26911618 0.26911618 -2.35960992 0 0 0 Z " fill="#1A1A1A" transform="translate(210,360)"/>
<path d="M0 0 C0 2.64 0 5.28 0 8 C-5.625 10 -5.625 10 -9 10 C-8.57742724 8.5164999 -8.13643678 7.03823576 -7.6875 5.5625 C-7.32205078 4.32693359 -7.32205078 4.32693359 -6.94921875 3.06640625 C-6.63597656 2.38449219 -6.32273438 1.70257813 -6 1 C-3 0 -3 0 0 0 Z " fill="#242424" transform="translate(172,357)"/>
<path d="M0 0 C0.33 0 0.66 0 1 0 C1 8.25 1 16.5 1 25 C-1.31 25.33 -3.62 25.66 -6 26 C-6.33 24.02 -6.66 22.04 -7 20 C-4.61435923 20.57584432 -2.33317216 21.22227595 0 22 C0 14.74 0 7.48 0 0 Z " fill="#7B7C7C" transform="translate(246,241)"/>
<path d="M0 0 C1.32 0.33 2.64 0.66 4 1 C-0.97161218 7.01826738 -6.29829243 12.66337352 -12 18 C-12.33 18 -12.66 18 -13 18 C-13 16.35 -13 14.7 -13 13 C-12.01 13 -11.02 13 -10 13 C-9.34 11.68 -8.68 10.36 -8 9 C-7.01 9 -6.02 9 -5 9 C-5 8.01 -5 7.02 -5 6 C-4.01 6 -3.02 6 -2 6 C-2 5.01 -2 4.02 -2 3 C-1.34 3 -0.68 3 0 3 C0 2.01 0 1.02 0 0 Z " fill="#A7C869" transform="translate(329,142)"/>
<path d="M0 0 C8.37775061 6.84810513 8.37775061 6.84810513 11 11 C11.0625 13.0625 11.0625 13.0625 10 15 C7.4375 17.25 7.4375 17.25 5 19 C4.67 18.01 4.34 17.02 4 16 C4.99 16 5.98 16 7 16 C7.16687448 13.58354218 7.16687448 13.58354218 7 11 C6.34 10.34 5.68 9.68 5 9 C5 8.01 5 7.02 5 6 C4.01 6 3.02 6 2 6 C0 3 0 3 0 0 Z " fill="#ADCE6C" transform="translate(330,123)"/>
<path d="M0 0 C1.9375 0.75 1.9375 0.75 4 2 C4.33 3.32 4.66 4.64 5 6 C1.7 6.33 -1.6 6.66 -5 7 C-5 4 -5 4 -3 2 C-2.01 1.34 -1.02 0.68 0 0 Z " fill="#1C1E1C" transform="translate(230,260)"/>
<path d="M0 0 C0.4125 0.639375 0.825 1.27875 1.25 1.9375 C3.23871451 4.2813421 4.03964858 4.55146191 7 5 C8.33333333 5.33333333 9.66666667 5.66666667 11 6 C11 6.66 11 7.32 11 8 C6.71 8 2.42 8 -2 8 C-1.34 5.36 -0.68 2.72 0 0 Z " fill="#54B6BC" transform="translate(302,374)"/>
<path d="M0 0 C-9.22551253 9.59453303 -9.22551253 9.59453303 -15 13 C-14.67 11.68 -14.34 10.36 -14 9 C-13.34 9 -12.68 9 -12 9 C-11.67 8.01 -11.34 7.02 -11 6 C-9.66666667 5 -8.33333333 4 -7 3 C-6.67 2.01 -6.34 1.02 -6 0 C-3 -1 -3 -1 0 0 Z " fill="#ADCF6C" transform="translate(300,176)"/>
<path d="M0 0 C0.99 0.33 1.98 0.66 3 1 C1.02 1.99 1.02 1.99 -1 3 C-1 3.66 -1 4.32 -1 5 C-2.64453125 6.69140625 -2.64453125 6.69140625 -4.8125 8.5625 C-5.87404297 9.49255859 -5.87404297 9.49255859 -6.95703125 10.44140625 C-9 12 -9 12 -12 13 C-12.33 13.66 -12.66 14.32 -13 15 C-13 13.35 -13 11.7 -13 10 C-12.195625 9.71125 -11.39125 9.4225 -10.5625 9.125 C-7.8673532 8.26737432 -7.8673532 8.26737432 -7 6 C-6.34 6 -5.68 6 -5 6 C-4.67 4.68 -4.34 3.36 -4 2 C-2.68 2 -1.36 2 0 2 C0 1.34 0 0.68 0 0 Z " fill="#AECE72" transform="translate(246,224)"/>
<path d="M0 0 C0.5 2 0.5 2 1 4 C1.226875 4.639375 1.45375 5.27875 1.6875 5.9375 C2.13460707 8.88840663 1.51376164 10.45412815 0 13 C-2.625 13.8125 -2.625 13.8125 -5 14 C-3.45730076 9.27934033 -1.92205381 4.58335908 0 0 Z " fill="#5CB7BC" transform="translate(309,358)"/>
<path d="M0 0 C1.67542976 0.28604898 3.34385343 0.61781233 5 1 C4.67 1.66 4.34 2.32 4 3 C3.34 3 2.68 3 2 3 C2.33 3.66 2.66 4.32 3 5 C3.99 5.33 4.98 5.66 6 6 C6 7.65 6 9.3 6 11 C3.96166576 9.7260411 1.96147874 8.38938077 0 7 C0 6.34 0 5.68 0 5 C-0.66 5 -1.32 5 -2 5 C-1.125 1.125 -1.125 1.125 0 0 Z " fill="#9CC456" transform="translate(183,191)"/>
<path d="M0 0 C0.33 0 0.66 0 1 0 C1 3.96 1 7.92 1 12 C-3 14 -3 14 -5.25 13.625 C-5.8275 13.41875 -6.405 13.2125 -7 13 C-6.67 12.01 -6.34 11.02 -6 10 C-4.35 10.33 -2.7 10.66 -1 11 C-1.01160156 10.28972656 -1.02320313 9.57945312 -1.03515625 8.84765625 C-1.04869141 7.46900391 -1.04869141 7.46900391 -1.0625 6.0625 C-1.07410156 5.14597656 -1.08570313 4.22945312 -1.09765625 3.28515625 C-1 1 -1 1 0 0 Z " fill="#151616" transform="translate(352,241)"/>
<path d="M0 0 C0.99 0.33 1.98 0.66 3 1 C-0.96 4.96 -4.92 8.92 -9 13 C-10 10 -10 10 -9.0625 7.8125 C-8.711875 7.214375 -8.36125 6.61625 -8 6 C-6.68 6 -5.36 6 -4 6 C-3.71125 5.38125 -3.4225 4.7625 -3.125 4.125 C-2 2 -2 2 0 0 Z " fill="#A9CD6F" transform="translate(282,189)"/>
<path d="M0 0 C0.66 0 1.32 0 2 0 C1.9375 2.1875 1.9375 2.1875 1 5 C-0.67884788 6.48481018 -2.42278445 7.67806853 -4.30859375 8.88671875 C-6.15512681 10.02053757 -6.15512681 10.02053757 -8 12 C-8.66 11.34 -9.32 10.68 -10 10 C-8.71034824 8.62437146 -7.37310707 7.29233607 -6 6 C-5.34 6 -4.68 6 -4 6 C-4 5.34 -4 4.68 -4 4 C-3.34 4 -2.68 4 -2 4 C-2 3.34 -2 2.68 -2 2 C-1.34 2 -0.68 2 0 2 C0 1.34 0 0.68 0 0 Z " fill="#A6C964" transform="translate(246,188)"/>
<path d="M0 0 C2.97 0 5.94 0 9 0 C8 3 8 3 7 4 C6.34 4 5.68 4 5 4 C4.01 4.66 3.02 5.32 2 6 C1.01 5.67 0.02 5.34 -1 5 C-0.67 3.35 -0.34 1.7 0 0 Z " fill="#282828" transform="translate(199,360)"/>
<path d="M0 0 C6.70212766 1.93617021 6.70212766 1.93617021 9 5 C9 5.66 9 6.32 9 7 C10.32 7.33 11.64 7.66 13 8 C12.67 9.32 12.34 10.64 12 12 C11.34 11.67 10.68 11.34 10 11 C10 10.34 10 9.68 10 9 C9.34 9 8.68 9 8 9 C8 8.34 8 7.68 8 7 C7.34 7 6.68 7 6 7 C1.34090909 2.68181818 1.34090909 2.68181818 0 0 Z " fill="#B0CF7E" transform="translate(199,212)"/>
<path d="M0 0 C1 3 1 3 -0.25 5.6875 C-1.11625 6.8321875 -1.11625 6.8321875 -2 8 C-2.99 8 -3.98 8 -5 8 C-5 8.66 -5 9.32 -5 10 C-6.65 10.33 -8.3 10.66 -10 11 C-6.79239749 7.19364503 -3.59253891 3.45436433 0 0 Z " fill="#ABCC6B" transform="translate(313,124)"/>
<path d="M0 0 C0.33 0.99 0.66 1.98 1 3 C-0.109375 5.04296875 -0.109375 5.04296875 -1.75 7.1875 C-2.28109375 7.90292969 -2.8121875 8.61835938 -3.359375 9.35546875 C-3.90078125 9.89816406 -4.4421875 10.44085938 -5 11 C-8 11 -8 11 -10 10 C-6.7 6.7 -3.4 3.4 0 0 Z " fill="#ACD26E" transform="translate(266,169)"/>
<path d="M0 0 C-0.33 0.99 -0.66 1.98 -1 3 C-3.64 3 -6.28 3 -9 3 C-9 1.68 -9 0.36 -9 -1 C-5.22102349 -2.0497157 -3.35080929 -2.10976881 0 0 Z " fill="#181D1E" transform="translate(295,379)"/>
<path d="M0 0 C2.31 0.33 4.62 0.66 7 1 C7 1.99 7 2.98 7 4 C3.7 4.33 0.4 4.66 -3 5 C-3 4.34 -3 3.68 -3 3 C-2.34 3 -1.68 3 -1 3 C-0.67 2.01 -0.34 1.02 0 0 Z " fill="#3DACBE" transform="translate(345,377)"/>
<path d="M0 0 C2.00130916 2.54712074 3.85727656 4.9527375 5 8 C4.625 10.25 4.625 10.25 4 12 C3.34 12 2.68 12 2 12 C1.67 10.02 1.34 8.04 1 6 C0.01 6.33 -0.98 6.66 -2 7 C-1.34 4.69 -0.68 2.38 0 0 Z " fill="#66B6BD" transform="translate(346,363)"/>
<path d="M0 0 C0.5534764 2.07553648 1 3.84365964 1 6 C0.01 6.33 -0.98 6.66 -2 7 C-3.21869929 9.50447516 -3.21869929 9.50447516 -4 12 C-5.32 12 -6.64 12 -8 12 C-7.566875 11.649375 -7.13375 11.29875 -6.6875 10.9375 C-4.36185131 8.26731076 -3.35889642 5.24953491 -2 2 C-1.34 1.34 -0.68 0.68 0 0 Z " fill="#94C043" transform="translate(282,154)"/>
<path d="M0 0 C0.66 0.33 1.32 0.66 2 1 C1.67 1.33 1.34 1.66 1 2 C0.76712992 3.68183948 0.58735834 5.3712416 0.4375 7.0625 C0.31181641 8.44115234 0.31181641 8.44115234 0.18359375 9.84765625 C0.12300781 10.55792969 0.06242187 11.26820313 0 12 C-3 10 -3 10 -3.8125 8.1875 C-4.05991146 5.30103291 -3.31210831 3.55515829 -2 1 C-1.34 0.67 -0.68 0.34 0 0 Z " fill="#37AFB5" transform="translate(330,334)"/>
<path d="M0 0 C1.65 0 3.3 0 5 0 C3.49776416 4.20626034 0.71449966 5.73900021 -3 8 C-2.67 6.35 -2.34 4.7 -2 3 C-2.66 2.67 -3.32 2.34 -4 2 C-2.68 2 -1.36 2 0 2 C0 1.34 0 0.68 0 0 Z " fill="#A7C963" transform="translate(260,208)"/>
<path d="M0 0 C0.66 0.33 1.32 0.66 2 1 C1.375 3.875 1.375 3.875 0 7 C-2.875 8.25 -2.875 8.25 -6 9 C-7.34721283 9.63815344 -8.68747118 10.29325371 -10 11 C-8.71937515 9.2925002 -7.38232443 7.62626404 -6 6 C-5.34 6 -4.68 6 -4 6 C-4 5.34 -4 4.68 -4 4 C-3.34 4 -2.68 4 -2 4 C-2 3.34 -2 2.68 -2 2 C-1.34 2 -0.68 2 0 2 C0 1.34 0 0.68 0 0 Z " fill="#ADD074" transform="translate(293,143)"/>
<path d="M0 0 C1.74834267 2.622514 2.51529754 3.99484478 3 7 C2.67 7.66 2.34 8.32 2 9 C-0.64860427 9.59355614 -3.29197322 9.74209269 -6 10 C-4.68 9.67 -3.36 9.34 -2 9 C-1.34 6.03 -0.68 3.06 0 0 Z " fill="#6B6B6B" transform="translate(284,334)"/>
<path d="M0 0 C2.64 0 5.28 0 8 0 C8 0.66 8 1.32 8 2 C6.25 3.6875 6.25 3.6875 4 5 C1.8125 4.8125 1.8125 4.8125 0 4 C-0.33 3.34 -0.66 2.68 -1 2 C-0.67 1.34 -0.34 0.68 0 0 Z " fill="#9ABF52" transform="translate(297,170)"/>
<path d="M0 0 C1.76141726 2.64212589 3.23818698 5.2427764 4.6875 8.0625 C5.14511719 8.94035156 5.60273438 9.81820313 6.07421875 10.72265625 C6.37972656 11.47417969 6.68523437 12.22570312 7 13 C6.67 13.66 6.34 14.32 6 15 C3.62317631 12.86285601 2.40068998 11.06221946 1.3125 8.0625 C1.06113281 7.39347656 0.80976563 6.72445313 0.55078125 6.03515625 C0 4 0 4 0 0 Z " fill="#6CB9BC" transform="translate(333,333)"/>
<path d="M0 0 C0.33 0 0.66 0 1 0 C1 2.64 1 5.28 1 8 C-1.97 7.505 -1.97 7.505 -5 7 C-4.67 5.35 -4.34 3.7 -4 2 C-3.01 2 -2.02 2 -1 2 C-0.67 1.34 -0.34 0.68 0 0 Z " fill="#55B6C5" transform="translate(369,374)"/>
<path d="M0 0 C0 0.66 0 1.32 0 2 C-2.83269666 3.41634833 -5.47466438 3.3463005 -8.625 3.5625 C-9.81351563 3.64628906 -11.00203125 3.73007812 -12.2265625 3.81640625 C-13.14179688 3.87699219 -14.05703125 3.93757813 -15 4 C-12.3851183 2.25674553 -10.9946567 1.58412043 -8.0625 0.875 C-7.39347656 0.70742188 -6.72445312 0.53984375 -6.03515625 0.3671875 C-4 0 -4 0 0 0 Z " fill="#3B939D" transform="translate(172,262)"/>
<path d="M0 0 C2.31 0.66 4.62 1.32 7 2 C7.33 3.98 7.66 5.96 8 8 C6.85073734 7.04578192 5.70569459 6.08647955 4.5625 5.125 C3.92441406 4.59132812 3.28632813 4.05765625 2.62890625 3.5078125 C1 2 1 2 0 0 Z " fill="#A7CB6F" transform="translate(189,202)"/>
<path d="M0 0 C0.33 0.66 0.66 1.32 1 2 C-0.0625 4.5625 -0.0625 4.5625 -2 7 C-5.1875 7.8125 -5.1875 7.8125 -8 8 C-7.34 7.67 -6.68 7.34 -6 7 C-6 6.34 -6 5.68 -6 5 C-4.04072937 3.2856382 -2.04119788 1.61594832 0 0 Z " fill="#AACB6D" transform="translate(278,158)"/>
<path d="M0 0 C3.37462715 0.54723683 5.08235 1.0549 8 3 C3.05 3 -1.9 3 -7 3 C-7 2.67 -7 2.34 -7 2 C-4.69 2 -2.38 2 0 2 C0 1.34 0 0.68 0 0 Z " fill="#408F98" transform="translate(355,269)"/>
<path d="M0 0 C0.66 0 1.32 0 2 0 C2.33 0.99 2.66 1.98 3 3 C1.625 4.5 1.625 4.5 0 6 C-0.66 6 -1.32 6 -2 6 C-2 6.66 -2 7.32 -2 8 C-2.99 8.33 -3.98 8.66 -5 9 C-5 7.68 -5 6.36 -5 5 C-2 3 -2 3 1 3 C0.67 2.01 0.34 1.02 0 0 Z " fill="#B1CD71" transform="translate(313,158)"/>
<path d="M0 0 C-0.66 2.97 -1.32 5.94 -2 9 C-2.33 9 -2.66 9 -3 9 C-3 7.35 -3 5.7 -3 4 C-3.66 4 -4.32 4 -5 4 C-5 3.01 -5 2.02 -5 1 C-3 0 -3 0 0 0 Z " fill="#5FB7C1" transform="translate(316,371)"/>
<path d="M0 0 C3.96 0 7.92 0 12 0 C12 0.99 12 1.98 12 3 C10.68 3 9.36 3 8 3 C8 2.34 8 1.68 8 1 C5.69 1 3.38 1 1 1 C0.67 1.66 0.34 2.32 0 3 C0 2.01 0 1.02 0 0 Z " fill="#707070" transform="translate(137,332)"/>
<path d="M0 0 C1.4540625 0.0309375 1.4540625 0.0309375 2.9375 0.0625 C-2.20535714 5.63392857 -2.20535714 5.63392857 -6.0625 6.0625 C-3.76028481 0.07674051 -3.76028481 0.07674051 0 0 Z " fill="#4A4A4A" transform="translate(265.0625,326.9375)"/>
<path d="M0 0 C-0.33 0.99 -0.66 1.98 -1 3 C-3.73030993 4.2676439 -4.87352646 4.04311598 -7.75 3.0625 C-8.4925 2.711875 -9.235 2.36125 -10 2 C-6.5980513 -0.09350689 -3.94727588 -0.17942163 0 0 Z " fill="#464646" transform="translate(171,250)"/>
<path d="M0 0 C0.66 0 1.32 0 2 0 C2.96661363 3.12180401 2.98988909 5.52083795 2.5625 8.75 C2.40974609 9.94882812 2.40974609 9.94882812 2.25390625 11.171875 C2.12822266 12.07679688 2.12822266 12.07679688 2 13 C1.67 13 1.34 13 1 13 C0.67 8.71 0.34 4.42 0 0 Z " fill="#535554" transform="translate(292,365)"/>
<path d="M0 0 C0.33 0.99 0.66 1.98 1 3 C-0.8125 5.6875 -0.8125 5.6875 -3 8 C-3.66 8 -4.32 8 -5 8 C-3.8141763 4.62496331 -2.72426311 2.35277269 0 0 Z " fill="#B2CF75" transform="translate(184,186)"/>
<path d="M0 0 C0.66 0.33 1.32 0.66 2 1 C1.34 2.65 0.68 4.3 0 6 C-1.32 6 -2.64 6 -4 6 C-2.84826645 3.53199953 -1.95216435 1.95216435 0 0 Z " fill="#85BD25" transform="translate(253,185)"/>
<path d="M0 0 C1.32 0 2.64 0 4 0 C3.01 3.3 2.02 6.6 1 10 C0.67 10 0.34 10 0 10 C0 6.7 0 3.4 0 0 Z " fill="#71BEC4" transform="translate(321,350)"/>
<path d="M0 0 C2.64 1.98 5.28 3.96 8 6 C7.67 6.66 7.34 7.32 7 8 C6.34 8 5.68 8 5 8 C5 7.34 5 6.68 5 6 C3.68 5.67 2.36 5.34 1 5 C0.67 3.35 0.34 1.7 0 0 Z " fill="#ACCE6E" transform="translate(219,194)"/>
<path d="M0 0 C0.66 0 1.32 0 2 0 C1.65120368 3.25543229 0.97866739 4.01873107 -1.5625 6.25 C-2.366875 6.8275 -3.17125 7.405 -4 8 C-4.33 7.01 -4.66 6.02 -5 5 C-4.01 5 -3.02 5 -2 5 C-1.34 3.35 -0.68 1.7 0 0 Z " fill="#B6CF8A" transform="translate(339,134)"/>
<path d="M0 0 C2.475 0.99 2.475 0.99 5 2 C5 2.99 5 3.98 5 5 C3.35 5 1.7 5 0 5 C0 3.35 0 1.7 0 0 Z " fill="#399FAB" transform="translate(350,266)"/>
<path d="M0 0 C-0.33 0.99 -0.66 1.98 -1 3 C-3.64 3 -6.28 3 -9 3 C-6.01800145 0.01800145 -4.21244839 0 0 0 Z " fill="#3E9BA4" transform="translate(286,267)"/>
<path d="M0 0 C0.33 0.66 0.66 1.32 1 2 C0.0625 4.125 0.0625 4.125 -1 6 C-1.99 6 -2.98 6 -4 6 C-3.67 4.35 -3.34 2.7 -3 1 C-2.01 0.67 -1.02 0.34 0 0 Z " fill="#1A1F1C" transform="translate(149,263)"/>
<path d="M0 0 C2.375 0.3125 2.375 0.3125 5 1 C5.66 1.99 6.32 2.98 7 4 C4.36 3.67 1.72 3.34 -1 3 C-0.67 2.01 -0.34 1.02 0 0 Z " fill="#BFD38F" transform="translate(195,173)"/>
<path d="M0 0 C0.33 1.32 0.66 2.64 1 4 C-3.75 5.125 -3.75 5.125 -6 4 C-2.25 0 -2.25 0 0 0 Z " fill="#525450" transform="translate(255,233)"/>
<path d="M0 0 C2.375 0.1875 2.375 0.1875 5 1 C6.3125 3.5625 6.3125 3.5625 7 6 C6.34 6 5.68 6 5 6 C5 5.34 5 4.68 5 4 C4.360625 3.71125 3.72125 3.4225 3.0625 3.125 C1 2 1 2 0 0 Z " fill="#B3D26F" transform="translate(219,231)"/>
<path d="M0 0 C0.99 0.33 1.98 0.66 3 1 C-0.465 3.97 -0.465 3.97 -4 7 C-3.04065919 3.16263678 -2.76390737 2.40339772 0 0 Z " fill="#A5C668" transform="translate(282,189)"/>
<path d="M0 0 C1.98 1.65 3.96 3.3 6 5 C5.34 5.66 4.68 6.32 4 7 C3.01 6.67 2.02 6.34 1 6 C0.67 4.02 0.34 2.04 0 0 Z " fill="#B8D678" transform="translate(202,177)"/>
<path d="M0 0 C0.66 0.33 1.32 0.66 2 1 C1.01 2.485 1.01 2.485 0 4 C0.33 4.66 0.66 5.32 1 6 C0.34 6.66 -0.32 7.32 -1 8 C-1 7.34 -1 6.68 -1 6 C-1.99 6 -2.98 6 -4 6 C-4 5.34 -4 4.68 -4 4 C-3.34 4 -2.68 4 -2 4 C-2 3.34 -2 2.68 -2 2 C-1.34 2 -0.68 2 0 2 C0 1.34 0 0.68 0 0 Z " fill="#ACCB67" transform="translate(319,118)"/>
<path d="M0 0 C1.32 0.33 2.64 0.66 4 1 C4 2.65 4 4.3 4 6 C3.34 5.34 2.68 4.68 2 4 C1.34 4.66 0.68 5.32 0 6 C0 4.02 0 2.04 0 0 Z " fill="#87CCD0" transform="translate(325,344)"/>
<path d="M0 0 C6.625 -0.25 6.625 -0.25 10 2 C5.94568308 3.15837626 3.78187881 2.83691257 0 1 C0 0.67 0 0.34 0 0 Z " fill="#1D1E19" transform="translate(331,258)"/>
<path d="M0 0 C2.475 0.495 2.475 0.495 5 1 C5.66 2.98 6.32 4.96 7 7 C5.83040013 6.02433888 4.66438823 5.044375 3.5 4.0625 C2.8503125 3.51722656 2.200625 2.97195312 1.53125 2.41015625 C1.0259375 1.94480469 0.520625 1.47945312 0 1 C0 0.67 0 0.34 0 0 Z " fill="#A8CB72" transform="translate(212,224)"/>
<path d="M0 0 C1.32 0.33 2.64 0.66 4 1 C1.03 3.475 1.03 3.475 -2 6 C-2.33 5.01 -2.66 4.02 -3 3 C-2.01 3 -1.02 3 0 3 C0 2.01 0 1.02 0 0 Z " fill="#B5D387" transform="translate(268,202)"/>
</svg>
